<svg class="logo-quarashi-small" viewBox="0 0 454 275.7" fill="#000" xmlns="http://www.w3.org/2000/svg">
	<path d="M70.4,262c-2.2,2-4.8,3.6-7.9,4.7c-3.1,1.2-6.1,1.7-9,1.7c-3.9,0-7.5-1.1-10.8-3.4c-3.3-2.3-5.8-5.4-7.8-9.3c-5.7-0.2-10.9-1.6-15.5-4.3c-4.6-2.7-8.2-6.3-10.8-10.8s-3.9-9.6-3.9-15.1c0-5.6,1.4-10.7,4.1-15.2c2.7-4.5,6.5-8.1,11.3-10.7c4.8-2.6,10.1-3.9,16-3.9s11.2,1.3,16,3.9c4.8,2.6,8.5,6.1,11.3,10.7c2.7,4.5,4.1,9.6,4.1,15.2c0,6.4-1.7,12.1-5.1,17c-3.4,5-8,8.6-13.7,10.8c2,2.4,4.2,3.6,6.5,3.6c1.3,0,2.9-0.4,4.6-1.2c1.7-0.8,3.5-1.8,5.3-3.1L70.4,262z M22.5,234.3c1.5,2.6,3.4,4.7,5.8,6.2c2.4,1.5,5.1,2.3,7.9,2.3s5.5-0.8,7.9-2.3s4.3-3.6,5.7-6.2c1.4-2.6,2.1-5.5,2.1-8.7c0-3.1-0.7-6-2.1-8.6c-1.4-2.6-3.3-4.7-5.7-6.2s-5-2.2-7.9-2.2s-5.5,0.7-8,2.2s-4.4,3.5-5.8,6.2c-1.4,2.6-2.1,5.5-2.1,8.6C20.3,228.8,21.1,231.7,22.5,234.3z" />
	<path d="M91.5,239.5c2.1,2.2,4.9,3.3,8.2,3.3c3.3,0,5.9-1.1,7.9-3.3s3-5.1,3-8.8v-34h15.1v34c0,5-1.1,9.4-3.2,13.2s-5.2,6.7-9.1,8.7s-8.6,3.1-13.9,3.1c-5.3,0-9.9-1-13.9-3.1c-4-2-7.1-4.9-9.3-8.7c-2.2-3.8-3.3-8.2-3.3-13.2v-34h15.1v34C88.2,234.4,89.3,237.3,91.5,239.5z" />
	<path d="M173.5,254.7l-4-10.3h-25.1l-4.1,10.3h-15.5l24.9-58h15.6l24.3,58H173.5z M149,232.8h16l-7.9-20.7L149,232.8z" />
	<path d="M228.4,254.7l-8.4-16h-0.3h-10.9v16h-15.1v-58h26.1c7.7,0,13.6,1.8,17.8,5.3c4.2,3.6,6.3,8.6,6.3,15c0,4.4-0.9,8.1-2.6,11.3c-1.8,3.2-4.3,5.6-7.7,7.4l12.1,18.9L228.4,254.7L228.4,254.7z M208.7,226.5h11c3.1,0,5.5-0.8,7.2-2.3s2.5-3.8,2.5-6.7c0-2.8-0.8-5-2.5-6.5s-4.1-2.3-7.2-2.3h-11V226.5z" />
	<path d="M296.8,254.7l-4-10.3h-25.1l-4,10.3h-15.6l24.9-58h15.6l24.3,58H296.8z M272.3,232.8h16l-7.9-20.7L272.3,232.8z" />
	<path d="M347.5,209.7c-3.5-1.2-6.4-1.7-8.8-1.7c-1.9,0-3.3,0.3-4.4,1c-1.1,0.7-1.6,1.7-1.6,3s0.5,2.3,1.4,3.2s2.1,1.5,3.5,2.1c1.4,0.5,3.4,1.2,6.1,2c4,1.2,7.4,2.3,10,3.5c2.6,1.2,4.9,2.9,6.7,5.3c1.9,2.4,2.8,5.5,2.8,9.4c0,3.9-1,7.2-3.1,9.9c-2,2.7-4.8,4.8-8.4,6.2c-3.6,1.4-7.5,2.1-11.9,2.1c-4.8,0-9.6-0.8-14.4-2.5s-8.9-4-12.4-6.9l5.9-11.8c2.9,2.6,6.4,4.7,10.4,6.4c4,1.6,7.5,2.5,10.6,2.5c2.3,0,4-0.4,5.3-1.2c1.3-0.8,1.9-2,1.9-3.6c0-1.3-0.5-2.4-1.4-3.3c-1-0.9-2.2-1.6-3.6-2.1c-1.5-0.5-3.5-1.1-6.2-1.9c-4-1.1-7.3-2.2-9.8-3.3c-2.6-1.1-4.8-2.8-6.7-5.1c-1.9-2.3-2.8-5.3-2.8-9.1c0-3.6,0.9-6.7,2.9-9.4c1.9-2.7,4.6-4.8,8.1-6.2c3.5-1.5,7.6-2.2,12.2-2.2c4.2,0,8.3,0.6,12.4,1.8s7.7,2.8,10.8,4.8l-5.7,12.1C354.3,212.3,351,210.8,347.5,209.7z" />
	<path d="M370.5,196.7h15.1v23.7H409v-23.7h15.1v58H409v-22.3h-23.4v22.3h-15.1V196.7z" />
	<path d="M434.2,196.7h15.1v58h-15.1V196.7z" />
	<path fill="#6E318C" d="M277.8,39.7c1.7,0.3,3,0.5,4.3,0.8c1.3,0.3,2.6,0.5,4.3,0.9c1.7,1.6,3,2.7,4.3,3.9c1.3,1.1,2.6,2.2,4.3,3.7c0,2.1,0,3.1,0,5.2c-1.7-0.3-3-0.5-4.3-0.6c-1.3-0.2-2.6-0.3-4.3-0.5c-1.7-1.3-3-2.3-4.3-3.4c-1.3-1-2.6-2.1-4.3-3.5c0-1.3,0-2.3,0-3.2C277.8,42,277.8,41,277.8,39.7z" />
	<path fill="#6E318C" d="M257.9,29.1c1.7,0.1,3,0.3,4.3,0.4c1.3,0.1,2.6,0.3,4.3,0.6c1.7,1.7,3,3,4.3,4.2c1.3,1.2,2.6,2.5,4.3,4.1c0,1.3,0,2.3,0,3.3s0,2,0,3.3c-1.7-0.1-3-0.2-4.3-0.2c-1.3,0-2.6-0.1-4.3-0.1c-1.7-1.5-3-2.6-4.3-3.7c-1.3-1.1-2.6-2.3-4.3-3.9c0-1.6,0-2.8,0-4C257.9,31.8,257.9,30.7,257.9,29.1z" />
	<path fill="#89298C" d="M238.1,18.4c1.7,0,3,0,4.3,0s2.6,0.1,4.3,0.2c1.7,1.9,3,3.2,4.3,4.6s2.6,2.7,4.3,4.4c0,1.6,0,2.9,0,4.1c0,1.2,0,2.5,0,4.1c-1.7,0-3,0.1-4.3,0.1c-1.3,0.1-2.6,0.1-4.3,0.3c-1.7-1.6-3-2.9-4.3-4.1c-1.3-1.3-2.6-2.5-4.3-4.3c0-1.9,0-3.3,0-4.7C238.1,21.7,238.1,20.3,238.1,18.4z" />
	<path fill="#89298C" d="M198.6,27.7c1.7-1.7,3-3.1,4.3-4.4c1.3-1.4,2.6-2.7,4.3-4.6c1.7-0.1,3-0.2,4.3-0.2s2.6-0.1,4.3,0c0,1.9,0,3.3,0,4.7s0,2.8,0,4.7c-1.7,1.7-3,3-4.3,4.3c-1.3,1.3-2.6,2.5-4.3,4.1c-1.7-0.1-3-0.2-4.3-0.3s-2.6-0.1-4.3-0.1c0-1.6,0-2.9,0-4.1C198.6,30.5,198.6,29.3,198.6,27.7z" />
	<path fill="#AD2686" d="M178.8,38.3c1.7-1.6,3-2.8,4.3-4.1c1.3-1.2,2.6-2.5,4.3-4.2c1.7-0.3,3-0.4,4.3-0.6c1.3-0.1,2.6-0.3,4.3-0.4c0,1.6,0,2.8,0,4c0,1.2,0,2.4,0,4c-1.7,1.6-3,2.8-4.3,3.9c-1.3,1.2-2.6,2.3-4.3,3.7c-1.7,0-3,0-4.3,0.1c-1.3,0-2.6,0.1-4.3,0.2c0-1.3,0-2.3,0-3.3C178.8,40.7,178.8,39.7,178.8,38.3z" />
	<path fill="#AD2686" d="M159,49c1.7-1.4,3-2.6,4.3-3.7c1.3-1.1,2.6-2.3,4.3-3.9c1.7-0.4,3-0.7,4.3-0.9c1.3-0.3,2.6-0.5,4.3-0.8c0,1.3,0,2.3,0,3.2c0,1,0,1.9,0,3.2c-1.7,1.4-3,2.5-4.3,3.5c-1.3,1-2.6,2.1-4.3,3.4c-1.7,0.1-3,0.3-4.3,0.5s-2.6,0.3-4.3,0.6C159,52.1,159,51.1,159,49z" />
	<path fill="#6E318C" d="M277.8,54c1.7,0,3,0,4.3,0.1c1.3,0,2.6,0.1,4.3,0.2c1.7,1.3,3,2.2,4.3,3.1c1.3,0.9,2.6,1.8,4.3,3c0,2.1,0,3.1,0,5.2c-1.7,0-3,0-4.3,0.1c-1.3,0.1-2.6,0.1-4.3,0.3c-1.7-1-3-1.8-4.3-2.7c-1.3-0.8-2.6-1.6-4.3-2.8c0-1.3,0-2.3,0-3.2S277.8,55.3,277.8,54z" />
	<path fill="#6E318C" d="M257.9,46.6c1.7-0.2,3-0.2,4.3-0.3c1.3-0.1,2.6-0.1,4.3-0.2c1.7,1.4,3,2.5,4.3,3.5c1.3,1,2.6,2,4.3,3.4c0,1.3,0,2.3,0,3.3s0,2,0,3.3c-1.7,0.2-3,0.3-4.3,0.5c-1.3,0.2-2.6,0.4-4.3,0.6c-1.7-1.2-3-2.1-4.3-3c-1.3-0.9-2.6-1.9-4.3-3.2c0-1.6,0-2.8,0-4S257.9,48.2,257.9,46.6z" />
	<path fill="#89298C" d="M238.1,39.2c1.7-0.3,3-0.5,4.3-0.7s2.6-0.3,4.3-0.5c1.7,1.6,3,2.8,4.3,3.9c1.3,1.1,2.6,2.3,4.3,3.7c0,1.6,0,2.9,0,4.1c0,1.2,0,2.5,0,4.1c-1.7,0.3-3,0.6-4.3,0.9c-1.3,0.3-2.6,0.6-4.3,1c-1.7-1.3-3-2.4-4.3-3.4s-2.6-2.1-4.3-3.6c0-1.9,0-3.3,0-4.7C238.1,42.5,238.1,41.1,238.1,39.2z" />
	<path fill="#89298C" d="M198.6,45.6c1.7-1.5,3-2.6,4.3-3.7c1.3-1.1,2.6-2.3,4.3-3.9c1.7,0.2,3,0.3,4.3,0.5s2.6,0.4,4.3,0.7c0,1.9,0,3.3,0,4.7s0,2.8,0,4.7c-1.7,1.5-3,2.5-4.3,3.6c-1.3,1-2.6,2.1-4.3,3.4c-1.7-0.4-3-0.7-4.3-1s-2.6-0.5-4.3-0.8c0-1.6,0-2.9,0-4.1C198.5,48.5,198.6,47.3,198.6,45.6z" />
	<path fill="#AD2686" d="M178.8,53c1.7-1.3,3-2.3,4.3-3.3s2.6-2.1,4.3-3.5c1.7,0,3,0.1,4.3,0.2c1.3,0.1,2.6,0.1,4.3,0.3c0,1.6,0,2.8,0,4s0,2.4,0,4c-1.7,1.3-3,2.3-4.3,3.2c-1.3,0.9-2.6,1.8-4.3,3c-1.7-0.3-3-0.5-4.3-0.6c-1.3-0.2-2.6-0.3-4.3-0.5c0-1.3,0-2.3,0-3.3C178.8,55.3,178.8,54.3,178.8,53z" />
	<path fill="#AD2686" d="M159,60.4c1.7-1.2,3-2.1,4.3-3s2.6-1.9,4.3-3.1c1.7-0.1,3-0.2,4.3-0.2c1.3,0,2.6-0.1,4.3-0.1c0,1.3,0,2.3,0,3.2s0,1.9,0,3.2c-1.7,1.2-3,2-4.3,2.8c-1.3,0.8-2.6,1.6-4.3,2.7c-1.7-0.1-3-0.2-4.3-0.3s-2.6-0.1-4.3-0.1C159,63.5,159,62.4,159,60.4z" />
	<path fill="#6E318C" d="M277.8,68.2c1.7-0.3,3-0.5,4.3-0.6c1.3-0.2,2.6-0.3,4.3-0.5c1.7,1,3,1.7,4.3,2.4c1.3,0.7,2.6,1.4,4.3,2.3c0,2.1,0,3.1,0,5.2c-1.7,0.3-3,0.5-4.3,0.8c-1.3,0.3-2.6,0.6-4.3,1c-1.7-0.7-3-1.3-4.3-1.9c-1.3-0.6-2.6-1.2-4.3-2.1c0-1.3,0-2.3,0-3.2C277.8,70.5,277.8,69.5,277.8,68.2z" />
	<path fill="#6E318C" d="M257.9,64.1c1.7-0.4,3-0.7,4.3-1c1.3-0.3,2.6-0.6,4.3-0.9c1.7,1.2,3,2,4.3,2.8c1.3,0.8,2.6,1.6,4.3,2.6c0,1.3,0,2.3,0,3.3s0,2,0,3.3c-1.7,0.4-3,0.8-4.3,1.2c-1.3,0.4-2.6,0.8-4.3,1.4c-1.7-0.9-3-1.6-4.3-2.3c-1.3-0.7-2.6-1.4-4.3-2.5c0-1.6,0-2.8,0-4C257.9,66.9,257.9,65.7,257.9,64.1z" />
	<path fill="#89298C" d="M238.1,60.1c1.7-0.6,3-1,4.3-1.4s2.6-0.8,4.3-1.2c1.7,1.3,3,2.2,4.3,3.2c1.3,0.9,2.6,1.8,4.3,3c0,1.6,0,2.9,0,4.1s0,2.5,0,4.1c-1.7,0.6-3,1.1-4.3,1.6s-2.6,1-4.3,1.7c-1.7-1-3-1.9-4.3-2.7c-1.3-0.8-2.6-1.7-4.3-2.8c0-1.9,0-3.3,0-4.7C238.1,63.4,238.1,62,238.1,60.1z" />
	<path fill="#89298C" d="M198.6,63.6c1.7-1.2,3-2.1,4.3-3c1.3-0.9,2.6-1.9,4.3-3.2c1.7,0.5,3,0.8,4.3,1.2s2.6,0.8,4.3,1.4c0,1.9,0,3.3,0,4.7s0,2.8,0,4.7c-1.7,1.2-3,2-4.3,2.8c-1.3,0.8-2.6,1.6-4.3,2.7c-1.7-0.7-3-1.2-4.3-1.7s-2.6-1-4.3-1.6c0-1.6,0-2.9,0-4.1C198.6,66.5,198.6,65.2,198.6,63.6z" />
	<path fill="#AD2686" d="M178.8,67.7c1.7-1,3-1.8,4.3-2.6c1.3-0.8,2.6-1.6,4.3-2.8c1.7,0.3,3,0.6,4.3,0.9c1.3,0.3,2.6,0.6,4.3,1c0,1.6,0,2.8,0,4c0,1.2,0,2.4,0,4c-1.7,1-3,1.8-4.3,2.5c-1.3,0.7-2.6,1.4-4.3,2.3c-1.7-0.6-3-1-4.3-1.4s-2.6-0.7-4.3-1.2c0-1.3,0-2.3,0-3.3C178.8,70,178.8,69,178.8,67.7z" />
	<path fill="#AD2686" d="M159,71.7c1.7-0.9,3-1.6,4.3-2.3c1.3-0.7,2.6-1.4,4.3-2.4c1.7,0.2,3,0.3,4.3,0.5c1.3,0.2,2.6,0.4,4.3,0.6c0,1.3,0,2.3,0,3.2c0,1,0,1.9,0,3.2c-1.7,0.9-3,1.5-4.3,2.1c-1.3,0.6-2.6,1.2-4.3,1.9c-1.7-0.4-3-0.7-4.3-1s-2.6-0.5-4.3-0.8C159,74.8,159,73.8,159,71.7z" />
	<path fill="#6E318C" d="M277.8,82.4c1.7-0.6,3-1,4.3-1.4c1.3-0.4,2.6-0.8,4.3-1.2c1.7,0.7,3,1.2,4.3,1.7c1.3,0.5,2.6,1,4.3,1.5c0,2.1,0,3.1,0,5.2c-1.7,0.6-3,1.1-4.3,1.5c-1.3,0.5-2.6,1-4.3,1.7c-1.7-0.5-3-0.8-4.3-1.2c-1.3-0.4-2.6-0.8-4.3-1.4c0-1.3,0-2.3,0-3.2S277.8,83.7,277.8,82.4z" />
	<path fill="#6E318C" d="M257.9,81.7c1.7-0.7,3-1.3,4.3-1.7c1.3-0.5,2.6-1,4.3-1.6c1.7,0.9,3,1.5,4.3,2.1c1.3,0.6,2.6,1.2,4.3,1.9c0,1.3,0,2.3,0,3.3s0,2,0,3.3c-1.7,0.7-3,1.3-4.3,1.9c-1.3,0.6-2.6,1.2-4.3,2.1c-1.7-0.6-3-1.1-4.3-1.6c-1.3-0.5-2.6-1-4.3-1.7c0-1.6,0-2.8,0-4C257.9,84.5,257.9,83.3,257.9,81.7z" />
	<path fill="#89298C" d="M238.1,80.9c1.7-0.9,3-1.5,4.3-2.1s2.6-1.2,4.3-2c1.7,1,3,1.7,4.3,2.5c1.3,0.7,2.6,1.4,4.3,2.3c0,1.6,0,2.9,0,4.1s0,2.4,0,4.1c-1.7,0.9-3,1.6-4.3,2.3c-1.3,0.7-2.6,1.4-4.3,2.4c-1.7-0.7-3-1.3-4.3-2c-1.3-0.6-2.6-1.2-4.3-2.1c0-1.9,0-3.3,0-4.7C238.1,84.2,238.1,82.8,238.1,80.9z" />
	<path fill="#89298C" d="M198.6,81.6c1.7-0.9,3-1.6,4.3-2.3c1.3-0.7,2.6-1.4,4.3-2.5c1.7,0.8,3,1.3,4.3,2c1.3,0.6,2.6,1.2,4.3,2.1c0,1.9,0,3.3,0,4.7c0,1.4,0,2.8,0,4.7c-1.7,0.9-3,1.5-4.3,2.1c-1.3,0.6-2.6,1.2-4.3,2c-1.7-1-3-1.7-4.3-2.4c-1.3-0.7-2.6-1.4-4.3-2.3c0-1.6,0-2.9,0-4.1C198.6,84.4,198.6,83.2,198.6,81.6z" />
	<path fill="#AD2686" d="M178.8,82.3c1.7-0.7,3-1.3,4.3-1.9s2.6-1.2,4.3-2.1c1.7,0.6,3,1.1,4.3,1.6c1.3,0.5,2.6,1,4.3,1.7c0,1.6,0,2.8,0,4s0,2.4,0,4c-1.7,0.7-3,1.3-4.3,1.7c-1.3,0.5-2.6,1-4.3,1.6c-1.7-0.9-3-1.5-4.3-2.1s-2.6-1.2-4.3-1.9c0-1.3,0-2.3,0-3.3C178.8,84.7,178.8,83.7,178.8,82.3z" />
	<path fill="#AD2686" d="M159,83.1c1.7-0.6,3-1.1,4.3-1.5c1.3-0.5,2.6-1,4.3-1.7c1.7,0.5,3,0.8,4.3,1.2c1.3,0.4,2.6,0.8,4.3,1.4c0,1.3,0,2.3,0,3.2s0,1.9,0,3.2c-1.7,0.6-3,1-4.3,1.4c-1.3,0.4-2.6,0.8-4.3,1.2c-1.7-0.7-3-1.2-4.3-1.7s-2.6-1-4.3-1.5C159,86.2,159,85.2,159,83.1z" />
	<path fill="#6E318C" d="M277.8,96.7c1.7-0.9,3-1.5,4.3-2.1c1.3-0.6,2.6-1.2,4.3-1.9c1.7,0.4,3,0.7,4.3,1c1.3,0.3,2.6,0.5,4.3,0.8c0,2.1,0,3.1,0,5.2c-1.7,0.9-3,1.5-4.3,2.3c-1.3,0.7-2.6,1.4-4.3,2.4c-1.7-0.2-3-0.3-4.3-0.5c-1.3-0.2-2.6-0.4-4.3-0.7c0-1.3,0-2.3,0-3.2C277.8,98.9,277.8,98,277.8,96.7z" />
	<path fill="#6E318C" d="M257.9,99.2c1.7-1,3-1.7,4.3-2.5c1.3-0.7,2.6-1.4,4.3-2.3c1.7,0.6,3,1,4.3,1.3c1.3,0.4,2.6,0.8,4.3,1.2c0,1.3,0,2.3,0,3.3s0,2,0,3.3c-1.7,1-3,1.8-4.3,2.6c-1.3,0.8-2.6,1.6-4.3,2.8c-1.7-0.3-3-0.6-4.3-0.9c-1.3-0.3-2.6-0.6-4.3-1c0-1.6,0-2.8,0-4C257.9,102,257.9,100.8,257.9,99.2z" />
	<path fill="#89298C" d="M238.1,101.8c1.7-1.2,3-2,4.3-2.8s2.6-1.6,4.3-2.7c1.7,0.7,3,1.2,4.3,1.7s2.6,1,4.3,1.6c0,1.6,0,2.9,0,4.1s0,2.4,0,4.1c-1.7,1.2-3,2.1-4.3,3s-2.6,1.9-4.3,3.2c-1.7-0.5-3-0.8-4.3-1.2c-1.3-0.4-2.6-0.8-4.3-1.4c0-1.9,0-3.3,0-4.7C238.1,105.1,238.1,103.7,238.1,101.8z" />
	<path fill="#89298C" d="M198.6,99.6c1.7-0.6,3-1.1,4.3-1.6c1.3-0.5,2.6-1,4.3-1.7c1.7,1,3,1.9,4.3,2.7c1.3,0.8,2.6,1.7,4.3,2.8c0,1.9,0,3.3,0,4.7c0,1.4,0,2.8,0,4.7c-1.7,0.6-3,1-4.3,1.4c-1.3,0.4-2.6,0.8-4.3,1.2c-1.7-1.3-3-2.2-4.3-3.2c-1.3-0.9-2.6-1.8-4.3-3c0-1.6,0-2.9,0-4.1C198.6,102.4,198.6,101.2,198.6,99.6z" />
	<path fill="#AD2686" d="M178.8,97c1.7-0.4,3-0.8,4.3-1.2c1.3-0.4,2.6-0.8,4.3-1.3c1.7,0.9,3,1.6,4.3,2.3c1.3,0.7,2.6,1.5,4.3,2.5c0,1.6,0,2.8,0,4s0,2.4,0,4c-1.7,0.4-3,0.7-4.3,1c-1.3,0.3-2.6,0.5-4.3,0.9c-1.7-1.1-3-2-4.3-2.8s-2.6-1.6-4.3-2.6c0-1.3,0-2.3,0-3.3S178.8,98.3,178.8,97z" />
	<path fill="#AD2686" d="M159,94.4c1.7-0.3,3-0.5,4.3-0.8s2.6-0.6,4.3-1c1.7,0.7,3,1.3,4.3,1.9c1.3,0.6,2.6,1.2,4.3,2.1c0,1.3,0,2.3,0,3.2c0,1,0,1.9,0,3.2c-1.7,0.3-3,0.5-4.3,0.7c-1.3,0.2-2.6,0.3-4.3,0.5c-1.7-1-3-1.7-4.3-2.4c-1.3-0.7-2.6-1.4-4.3-2.3C159,97.5,159,96.5,159,94.4z" />
	<path fill="#6E318C" d="M277.8,110.9c1.7-1.2,3-2,4.3-2.8c1.3-0.8,2.6-1.6,4.3-2.7c1.7,0.1,3,0.2,4.3,0.3c1.3,0.1,2.6,0.1,4.3,0.1c0,2.1,0,3.1,0,5.2c-1.7,1.2-3,2.1-4.3,3c-1.3,0.9-2.6,1.9-4.3,3.1c-1.7,0.1-3,0.2-4.3,0.2c-1.3,0-2.6,0.1-4.3,0.1c0-1.3,0-2.3,0-3.2C277.8,113.2,277.8,112.2,277.8,110.9z" />
	<path fill="#6E318C" d="M257.9,116.8c1.7-1.3,3-2.3,4.3-3.2c1.3-0.9,2.6-1.8,4.3-3c1.7,0.3,3,0.5,4.3,0.6c1.3,0.2,2.6,0.3,4.3,0.5c0,1.3,0,2.3,0,3.3s0,2,0,3.3c-1.7,1.3-3,2.3-4.3,3.4c-1.3,1-2.6,2.1-4.3,3.5c-1.7,0-3-0.1-4.3-0.1c-1.3-0.1-2.6-0.1-4.3-0.3c0-1.6,0-2.8,0-4C257.9,119.6,257.9,118.4,257.9,116.8z" />
	<path fill="#89298C" d="M238.1,122.6c1.7-1.5,3-2.5,4.3-3.6c1.3-1,2.6-2.1,4.3-3.4c1.7,0.4,3,0.7,4.3,1s2.6,0.5,4.3,0.8c0,1.6,0,2.9,0,4.1s0,2.5,0,4.1c-1.7,1.5-3,2.6-4.3,3.7c-1.3,1.1-2.6,2.3-4.3,3.9c-1.7-0.2-3-0.3-4.3-0.5s-2.6-0.4-4.3-0.7c0-1.9,0-3.3,0-4.7C238.1,125.9,238.1,124.5,238.1,122.6z" />
	<path fill="#89298C" d="M198.6,117.5c1.7-0.3,3-0.6,4.3-0.9c1.3-0.3,2.6-0.6,4.3-1c1.7,1.3,3,2.4,4.3,3.4s2.6,2.1,4.3,3.6c0,1.9,0,3.3,0,4.7c0,1.4,0,2.8,0,4.7c-1.7,0.3-3,0.5-4.3,0.7c-1.3,0.2-2.6,0.4-4.3,0.5c-1.7-1.6-3-2.8-4.3-3.9c-1.3-1.1-2.6-2.3-4.3-3.7c0-1.6,0-2.9,0-4.1S198.6,119.2,198.6,117.5z" />
	<path fill="#AD2686" d="M178.8,111.7c1.7-0.2,3-0.3,4.3-0.5s2.6-0.3,4.3-0.6c1.7,1.2,3,2.1,4.3,3c1.3,0.9,2.6,1.9,4.3,3.2c0,1.6,0,2.8,0,4s0,2.4,0,4c-1.7,0.2-3,0.2-4.3,0.3c-1.3,0.1-2.6,0.1-4.3,0.1c-1.7-1.4-3-2.5-4.3-3.5s-2.6-2-4.3-3.4c0-1.3,0-2.3,0-3.3C178.8,114,178.8,113,178.8,111.7z" />
	<path fill="#AD2686" d="M159,105.8c1.7,0,3,0,4.3-0.1s2.6-0.1,4.3-0.3c1.7,1,3,1.8,4.3,2.7c1.3,0.8,2.6,1.7,4.3,2.8c0,1.3,0,2.3,0,3.2c0,1,0,1.9,0,3.2c-1.7,0-3,0-4.3-0.1c-1.3,0-2.6-0.1-4.3-0.2c-1.7-1.3-3-2.2-4.3-3.1s-2.6-1.8-4.3-3C159,108.9,159,107.9,159,105.8z" />
	<path fill="#6E318C" d="M277.8,125.1c1.7-1.4,3-2.5,4.3-3.5c1.3-1,2.6-2.1,4.3-3.4c1.7-0.1,3-0.3,4.3-0.4c1.3-0.2,2.6-0.3,4.3-0.6c0,2.1,0,3.1,0,5.2c-1.7,1.4-3,2.6-4.3,3.7c-1.3,1.1-2.6,2.3-4.3,3.9c-1.7,0.4-3,0.7-4.3,1c-1.3,0.3-2.6,0.5-4.3,0.8c0-1.3,0-2.3,0-3.2C277.8,127.4,277.8,126.4,277.8,125.1z" />
	<path fill="#6E318C" d="M257.9,134.3c1.7-1.6,3-2.8,4.3-3.9c1.3-1.1,2.6-2.3,4.3-3.7c1.7,0,3,0,4.3-0.1c1.3,0,2.6-0.1,4.3-0.2c0,1.3,0,2.3,0,3.3s0,2,0,3.3c-1.7,1.6-3,2.8-4.3,4.1c-1.3,1.2-2.6,2.5-4.3,4.2c-1.7,0.3-3,0.4-4.3,0.6c-1.3,0.2-2.6,0.3-4.3,0.4c0-1.6,0-2.8,0-4C257.9,137.1,257.9,135.9,257.9,134.3z" />
	<path fill="#89298C" d="M238.1,143.5c1.7-1.7,3-3,4.3-4.3s2.6-2.5,4.3-4.1c1.7,0.1,3,0.2,4.3,0.3s2.6,0.1,4.3,0.1c0,1.6,0,2.9,0,4.1c0,1.2,0,2.5,0,4.1c-1.7,1.7-3,3.1-4.3,4.4c-1.3,1.4-2.6,2.7-4.3,4.6c-1.7,0.1-3,0.2-4.3,0.2s-2.6,0.1-4.3,0c0-1.9,0-3.3,0-4.7C238.1,146.8,238.1,145.4,238.1,143.5z" />
	<g>
		<polygon fill="#89298C" points="218.3,17 226.9,7.2 235.5,17 235.5,26.7 226.9,27.8 218.3,26.7" />
		<polygon fill="#89298C" points="218.3,38.3 226.9,29.9 235.5,38.3 235.5,47.9 226.9,50.6 218.3,47.9" />
		<polygon fill="#89298C" points="218.3,59.6 226.9,52.6 235.5,59.6 235.5,69.2 226.9,73.3 218.3,69.2" />
		<polygon fill="#89298C" points="218.3,80.8 226.9,75.3 235.5,80.8 235.5,90.5 226.9,96 218.3,90.5" />
		<polygon fill="#89298C" points="218.3,102.1 226.9,98.1 235.5,102.1 235.5,111.8 226.9,118.7 218.3,111.8" />
		<polygon fill="#89298C" points="218.3,123.4 226.9,120.8 235.5,123.4 235.5,133.1 226.9,141.4 218.3,133.1" />
		<path fill="#89298C" d="M218.3,144.7l8.6-1.2l8.6,1.2v9.7l-8.6,9.8c0,0-7.5-8.5-8.6-9.8C218.3,152.4,218.3,144.7,218.3,144.7z" />
	</g>
	<path fill="#89298C" d="M198.6,135.5c1.7,0,3-0.1,4.3-0.1c1.3-0.1,2.6-0.1,4.3-0.3c1.7,1.6,3,2.9,4.3,4.1c1.3,1.3,2.6,2.5,4.3,4.3c0,1.9,0,3.3,0,4.7s0,2.8,0,4.7c-1.7,0-3,0-4.3,0c-1.3,0-2.6-0.1-4.3-0.2c-1.7-1.9-3-3.3-4.3-4.6c-1.3-1.4-2.6-2.7-4.3-4.4c0-1.6,0-2.9,0-4.1C198.6,138.4,198.6,137.1,198.6,135.5z" />
	<path fill="#AD2686" d="M178.8,126.3c1.7,0.1,3,0.2,4.3,0.2s2.6,0.1,4.3,0.1c1.7,1.5,3,2.6,4.3,3.7c1.3,1.1,2.6,2.3,4.3,3.9c0,1.6,0,2.8,0,4s0,2.4,0,4c-1.7-0.1-3-0.3-4.3-0.4c-1.3-0.1-2.6-0.3-4.3-0.6c-1.7-1.7-3-3-4.3-4.2s-2.6-2.5-4.3-4.1c0-1.3,0-2.3,0-3.3C178.8,128.7,178.8,127.7,178.8,126.3z" />
	<path fill="#AD2686" d="M159,117.2c1.7,0.3,3,0.5,4.3,0.6c1.3,0.2,2.6,0.3,4.3,0.4c1.7,1.3,3,2.3,4.3,3.4c1.3,1,2.6,2.1,4.3,3.5c0,1.3,0,2.3,0,3.2c0,1,0,1.9,0,3.2c-1.7-0.3-3-0.5-4.3-0.8c-1.3-0.3-2.6-0.5-4.3-1c-1.7-1.6-3-2.7-4.3-3.9c-1.3-1.1-2.6-2.3-4.3-3.7C159,120.3,159,119.2,159,117.2z" />
</svg>