<svg class="logo-quarashi" viewBox="0 0 612 161.7" fill="#fff" xmlns="http://www.w3.org/2000/svg">
	<path d="M228.1,117.3c-2.2,2-4.8,3.6-7.9,4.7c-3.1,1.2-6.1,1.7-9,1.7c-3.9,0-7.5-1.1-10.8-3.4 c-3.3-2.3-5.8-5.4-7.8-9.3c-5.7-0.2-10.9-1.6-15.5-4.3c-4.6-2.7-8.2-6.3-10.8-10.8c-2.6-4.5-3.9-9.6-3.9-15.1 c0-5.6,1.4-10.7,4.1-15.2c2.7-4.5,6.5-8.1,11.3-10.7c4.8-2.6,10.1-3.9,16-3.9c5.9,0,11.2,1.3,16,3.9c4.8,2.6,8.5,6.1,11.3,10.7 c2.7,4.5,4.1,9.6,4.1,15.2c0,6.4-1.7,12.1-5.1,17c-3.4,5-8,8.6-13.7,10.8c2,2.4,4.2,3.6,6.5,3.6c1.3,0,2.9-0.4,4.6-1.2 c1.7-0.8,3.5-1.8,5.3-3.1L228.1,117.3z M180.2,89.6c1.5,2.6,3.4,4.7,5.8,6.2c2.4,1.5,5.1,2.3,7.9,2.3s5.5-0.8,7.9-2.3 c2.4-1.5,4.3-3.6,5.7-6.2c1.4-2.6,2.1-5.5,2.1-8.7c0-3.1-0.7-6-2.1-8.6c-1.4-2.6-3.3-4.7-5.7-6.2c-2.4-1.5-5-2.2-7.9-2.2 s-5.5,0.7-8,2.2c-2.5,1.5-4.4,3.5-5.8,6.2c-1.4,2.6-2.1,5.5-2.1,8.6C178,84.1,178.8,87,180.2,89.6z" />
	<path d="M249.2,94.8c2.1,2.2,4.9,3.3,8.2,3.3c3.3,0,5.9-1.1,7.9-3.3c2-2.2,3-5.1,3-8.8V52h15.1V86 c0,5-1.1,9.4-3.2,13.2c-2.1,3.8-5.2,6.7-9.1,8.7c-3.9,2-8.6,3.1-13.9,3.1c-5.3,0-9.9-1-13.9-3.1c-4-2-7.1-4.9-9.3-8.7 c-2.2-3.8-3.3-8.2-3.3-13.2V52h15.1V86C245.9,89.7,247,92.6,249.2,94.8z" />
	<path d="M331.2,110l-4-10.3h-25.1l-4.1,10.3h-15.5l24.9-58H323l24.3,58H331.2z M306.7,88.1h16l-7.9-20.7L306.7,88.1z" />
	<path d="M386.1,110l-8.4-16h-0.3h-10.9v16h-15.1V52h26.1c7.7,0,13.6,1.8,17.8,5.3c4.2,3.6,6.3,8.6,6.3,15 c0,4.4-0.9,8.1-2.6,11.3c-1.8,3.2-4.3,5.6-7.7,7.4l12.1,18.9L386.1,110L386.1,110z M366.4,81.8h11c3.1,0,5.5-0.8,7.2-2.3 c1.7-1.5,2.5-3.8,2.5-6.7c0-2.8-0.8-5-2.5-6.5c-1.7-1.5-4.1-2.3-7.2-2.3h-11V81.8z" />
	<path d="M454.5,110l-4-10.3h-25.1l-4,10.3h-15.6l24.9-58h15.6l24.3,58H454.5z M430,88.1h16l-7.9-20.7L430,88.1z" />
	<path d="M505.2,65c-3.5-1.2-6.4-1.7-8.8-1.7c-1.9,0-3.3,0.3-4.4,1c-1.1,0.7-1.6,1.7-1.6,3c0,1.3,0.5,2.3,1.4,3.2 c0.9,0.9,2.1,1.5,3.5,2.1c1.4,0.5,3.4,1.2,6.1,2c4,1.2,7.4,2.3,10,3.5c2.6,1.2,4.9,2.9,6.7,5.3c1.9,2.4,2.8,5.5,2.8,9.4 c0,3.9-1,7.2-3.1,9.9c-2,2.7-4.8,4.8-8.4,6.2c-3.6,1.4-7.5,2.1-11.9,2.1c-4.8,0-9.6-0.8-14.4-2.5c-4.8-1.7-8.9-4-12.4-6.9l5.9-11.8 c2.9,2.6,6.4,4.7,10.4,6.4c4,1.6,7.5,2.5,10.6,2.5c2.3,0,4-0.4,5.3-1.2c1.3-0.8,1.9-2,1.9-3.6c0-1.3-0.5-2.4-1.4-3.3 c-1-0.9-2.2-1.6-3.6-2.1c-1.5-0.5-3.5-1.1-6.2-1.9c-4-1.1-7.3-2.2-9.8-3.3c-2.6-1.1-4.8-2.8-6.7-5.1s-2.8-5.3-2.8-9.1 c0-3.6,0.9-6.7,2.9-9.4c1.9-2.7,4.6-4.8,8.1-6.2c3.5-1.5,7.6-2.2,12.2-2.2c4.2,0,8.3,0.6,12.4,1.8c4.1,1.2,7.7,2.8,10.8,4.8 l-5.7,12.1C512,67.6,508.7,66.1,505.2,65z" />
	<path d="M528.2,52h15.1v23.7h23.4V52h15.1v58h-15.1V87.7h-23.4V110h-15.1V52z" />
	<path d="M591.9,52H607v58h-15.1V52z" />
	<path fill="#6E318C" d="M128.8,35c1.7,0.3,3,0.5,4.3,0.8c1.3,0.3,2.6,0.5,4.3,0.9c1.7,1.6,3,2.7,4.3,3.9c1.3,1.1,2.6,2.2,4.3,3.7 c0,2.1,0,3.1,0,5.2c-1.7-0.3-3-0.5-4.3-0.6c-1.3-0.2-2.6-0.3-4.3-0.5c-1.7-1.3-3-2.3-4.3-3.4c-1.3-1-2.6-2.1-4.3-3.5 c0-1.3,0-2.3,0-3.2C128.8,37.3,128.8,36.3,128.8,35z" />
	<path fill="#6E318C" d="M109,24.4c1.7,0.1,3,0.3,4.3,0.4c1.3,0.1,2.6,0.3,4.3,0.6c1.7,1.7,3,3,4.3,4.2c1.3,1.2,2.6,2.5,4.3,4.1 c0,1.3,0,2.3,0,3.3c0,1,0,2,0,3.3c-1.7-0.1-3-0.2-4.3-0.2c-1.3,0-2.6-0.1-4.3-0.1c-1.7-1.5-3-2.6-4.3-3.7 c-1.3-1.1-2.6-2.3-4.3-3.9c0-1.6,0-2.8,0-4C109,27.1,109,26,109,24.4z" />
	<path fill="#89298C" d="M89.2,13.7c1.7,0,3,0,4.3,0c1.3,0,2.6,0.1,4.3,0.2c1.7,1.9,3,3.2,4.3,4.6c1.3,1.4,2.6,2.7,4.3,4.4 c0,1.6,0,2.9,0,4.1c0,1.2,0,2.5,0,4.1c-1.7,0-3,0.1-4.3,0.1c-1.3,0.1-2.6,0.1-4.3,0.3c-1.7-1.6-3-2.9-4.3-4.1 c-1.3-1.3-2.6-2.5-4.3-4.3c0-1.9,0-3.3,0-4.7C89.2,17,89.2,15.6,89.2,13.7z" />
	<path fill="#89298C" d="M49.7,23c1.7-1.7,3-3.1,4.3-4.4c1.3-1.4,2.6-2.7,4.3-4.6c1.7-0.1,3-0.2,4.3-0.2c1.3,0,2.6-0.1,4.3,0 c0,1.9,0,3.3,0,4.7c0,1.4,0,2.8,0,4.7c-1.7,1.7-3,3-4.3,4.3c-1.3,1.3-2.6,2.5-4.3,4.1c-1.7-0.1-3-0.2-4.3-0.3 c-1.3-0.1-2.6-0.1-4.3-0.1c0-1.6,0-2.9,0-4.1C49.7,25.8,49.7,24.6,49.7,23z" />
	<path fill="#AD2686" d="M29.9,33.6c1.7-1.6,3-2.8,4.3-4.1c1.3-1.2,2.6-2.5,4.3-4.2c1.7-0.3,3-0.4,4.3-0.6c1.3-0.1,2.6-0.3,4.3-0.4 c0,1.6,0,2.8,0,4c0,1.2,0,2.4,0,4c-1.7,1.6-3,2.8-4.3,3.9c-1.3,1.2-2.6,2.3-4.3,3.7c-1.7,0-3,0-4.3,0.1c-1.3,0-2.6,0.1-4.3,0.2 c0-1.3,0-2.3,0-3.3C29.9,36,29.9,35,29.9,33.6z" />
	<path fill="#AD2686" d="M10.1,44.3c1.7-1.4,3-2.6,4.3-3.7c1.3-1.1,2.6-2.3,4.3-3.9c1.7-0.4,3-0.7,4.3-0.9c1.3-0.3,2.6-0.5,4.3-0.8 c0,1.3,0,2.3,0,3.2c0,1,0,1.9,0,3.2c-1.7,1.4-3,2.5-4.3,3.5c-1.3,1-2.6,2.1-4.3,3.4c-1.7,0.1-3,0.3-4.3,0.5 c-1.3,0.2-2.6,0.3-4.3,0.6C10.1,47.4,10.1,46.4,10.1,44.3z" />
	<path fill="#6E318C" d="M128.8,49.3c1.7,0,3,0,4.3,0.1c1.3,0,2.6,0.1,4.3,0.2c1.7,1.3,3,2.2,4.3,3.1c1.3,0.9,2.6,1.8,4.3,3 c0,2.1,0,3.1,0,5.2c-1.7,0-3,0-4.3,0.1c-1.3,0.1-2.6,0.1-4.3,0.3c-1.7-1-3-1.8-4.3-2.7c-1.3-0.8-2.6-1.6-4.3-2.8 c0-1.3,0-2.3,0-3.2S128.8,50.6,128.8,49.3z" />
	<path fill="#6E318C" d="M109,41.9c1.7-0.2,3-0.2,4.3-0.3c1.3-0.1,2.6-0.1,4.3-0.2c1.7,1.4,3,2.5,4.3,3.5c1.3,1,2.6,2,4.3,3.4 c0,1.3,0,2.3,0,3.3c0,1,0,2,0,3.3c-1.7,0.2-3,0.3-4.3,0.5c-1.3,0.2-2.6,0.4-4.3,0.6c-1.7-1.2-3-2.1-4.3-3 c-1.3-0.9-2.6-1.9-4.3-3.2c0-1.6,0-2.8,0-4S109,43.5,109,41.9z" />
	<path fill="#89298C" d="M89.2,34.5c1.7-0.3,3-0.5,4.3-0.7c1.3-0.2,2.6-0.3,4.3-0.5c1.7,1.6,3,2.8,4.3,3.9c1.3,1.1,2.6,2.3,4.3,3.7 c0,1.6,0,2.9,0,4.1c0,1.2,0,2.5,0,4.1c-1.7,0.3-3,0.6-4.3,0.9c-1.3,0.3-2.6,0.6-4.3,1c-1.7-1.3-3-2.4-4.3-3.4 c-1.3-1-2.6-2.1-4.3-3.6c0-1.9,0-3.3,0-4.7C89.2,37.8,89.2,36.4,89.2,34.5z" />
	<path fill="#89298C" d="M49.7,40.9c1.7-1.5,3-2.6,4.3-3.7c1.3-1.1,2.6-2.3,4.3-3.9c1.7,0.2,3,0.3,4.3,0.5c1.3,0.2,2.6,0.4,4.3,0.7 c0,1.9,0,3.3,0,4.7c0,1.4,0,2.8,0,4.7c-1.7,1.5-3,2.5-4.3,3.6c-1.3,1-2.6,2.1-4.3,3.4c-1.7-0.4-3-0.7-4.3-1 c-1.3-0.3-2.6-0.5-4.3-0.8c0-1.6,0-2.9,0-4.1C49.6,43.8,49.7,42.6,49.7,40.9z" />
	<path fill="#AD2686" d="M29.9,48.3c1.7-1.3,3-2.3,4.3-3.3c1.3-1,2.6-2.1,4.3-3.5c1.7,0,3,0.1,4.3,0.2c1.3,0.1,2.6,0.1,4.3,0.3 c0,1.6,0,2.8,0,4s0,2.4,0,4c-1.7,1.3-3,2.3-4.3,3.2c-1.3,0.9-2.6,1.8-4.3,3c-1.7-0.3-3-0.5-4.3-0.6c-1.3-0.2-2.6-0.3-4.3-0.5 c0-1.3,0-2.3,0-3.3C29.9,50.6,29.9,49.6,29.9,48.3z" />
	<path fill="#AD2686" d="M10.1,55.7c1.7-1.2,3-2.1,4.3-3c1.3-0.9,2.6-1.9,4.3-3.1c1.7-0.1,3-0.2,4.3-0.2c1.3,0,2.6-0.1,4.3-0.1 c0,1.3,0,2.3,0,3.2s0,1.9,0,3.2c-1.7,1.2-3,2-4.3,2.8c-1.3,0.8-2.6,1.6-4.3,2.7c-1.7-0.1-3-0.2-4.3-0.3c-1.3-0.1-2.6-0.1-4.3-0.1 C10.1,58.8,10.1,57.7,10.1,55.7z" />
	<path fill="#6E318C" d="M128.8,63.5c1.7-0.3,3-0.5,4.3-0.6c1.3-0.2,2.6-0.3,4.3-0.5c1.7,1,3,1.7,4.3,2.4c1.3,0.7,2.6,1.4,4.3,2.3 c0,2.1,0,3.1,0,5.2c-1.7,0.3-3,0.5-4.3,0.8c-1.3,0.3-2.6,0.6-4.3,1c-1.7-0.7-3-1.3-4.3-1.9c-1.3-0.6-2.6-1.2-4.3-2.1 c0-1.3,0-2.3,0-3.2C128.8,65.8,128.8,64.8,128.8,63.5z" />
	<path fill="#6E318C" d="M109,59.4c1.7-0.4,3-0.7,4.3-1c1.3-0.3,2.6-0.6,4.3-0.9c1.7,1.2,3,2,4.3,2.8c1.3,0.8,2.6,1.6,4.3,2.6 c0,1.3,0,2.3,0,3.3c0,1,0,2,0,3.3c-1.7,0.4-3,0.8-4.3,1.2c-1.3,0.4-2.6,0.8-4.3,1.4c-1.7-0.9-3-1.6-4.3-2.3 c-1.3-0.7-2.6-1.4-4.3-2.5c0-1.6,0-2.8,0-4C109,62.2,109,61,109,59.4z" />
	<path fill="#89298C" d="M89.2,55.4c1.7-0.6,3-1,4.3-1.4c1.3-0.4,2.6-0.8,4.3-1.2c1.7,1.3,3,2.2,4.3,3.2c1.3,0.9,2.6,1.8,4.3,3 c0,1.6,0,2.9,0,4.1c0,1.2,0,2.5,0,4.1c-1.7,0.6-3,1.1-4.3,1.6c-1.3,0.5-2.6,1-4.3,1.7c-1.7-1-3-1.9-4.3-2.7 c-1.3-0.8-2.6-1.7-4.3-2.8c0-1.9,0-3.3,0-4.7C89.2,58.7,89.2,57.3,89.2,55.4z" />
	<path fill="#89298C" d="M49.7,58.9c1.7-1.2,3-2.1,4.3-3c1.3-0.9,2.6-1.9,4.3-3.2c1.7,0.5,3,0.8,4.3,1.2c1.3,0.4,2.6,0.8,4.3,1.4 c0,1.9,0,3.3,0,4.7c0,1.4,0,2.8,0,4.7c-1.7,1.2-3,2-4.3,2.8c-1.3,0.8-2.6,1.6-4.3,2.7c-1.7-0.7-3-1.2-4.3-1.7 c-1.3-0.5-2.6-1-4.3-1.6c0-1.6,0-2.9,0-4.1C49.7,61.8,49.7,60.5,49.7,58.9z" />
	<path fill="#AD2686" d="M29.9,63c1.7-1,3-1.8,4.3-2.6c1.3-0.8,2.6-1.6,4.3-2.8c1.7,0.3,3,0.6,4.3,0.9c1.3,0.3,2.6,0.6,4.3,1 c0,1.6,0,2.8,0,4c0,1.2,0,2.4,0,4c-1.7,1-3,1.8-4.3,2.5c-1.3,0.7-2.6,1.4-4.3,2.3c-1.7-0.6-3-1-4.3-1.4c-1.3-0.4-2.6-0.7-4.3-1.2 c0-1.3,0-2.3,0-3.3C29.9,65.3,29.9,64.3,29.9,63z" />
	<path fill="#AD2686" d="M10.1,67c1.7-0.9,3-1.6,4.3-2.3c1.3-0.7,2.6-1.4,4.3-2.4c1.7,0.2,3,0.3,4.3,0.5c1.3,0.2,2.6,0.4,4.3,0.6 c0,1.3,0,2.3,0,3.2c0,1,0,1.9,0,3.2c-1.7,0.9-3,1.5-4.3,2.1c-1.3,0.6-2.6,1.2-4.3,1.9c-1.7-0.4-3-0.7-4.3-1 c-1.3-0.3-2.6-0.5-4.3-0.8C10.1,70.1,10.1,69.1,10.1,67z" />
	<path fill="#6E318C" d="M128.8,77.7c1.7-0.6,3-1,4.3-1.4c1.3-0.4,2.6-0.8,4.3-1.2c1.7,0.7,3,1.2,4.3,1.7c1.3,0.5,2.6,1,4.3,1.5 c0,2.1,0,3.1,0,5.2c-1.7,0.6-3,1.1-4.3,1.5c-1.3,0.5-2.6,1-4.3,1.7c-1.7-0.5-3-0.8-4.3-1.2c-1.3-0.4-2.6-0.8-4.3-1.4 c0-1.3,0-2.3,0-3.2S128.8,79,128.8,77.7z" />
	<path fill="#6E318C" d="M109,77c1.7-0.7,3-1.3,4.3-1.7c1.3-0.5,2.6-1,4.3-1.6c1.7,0.9,3,1.5,4.3,2.1c1.3,0.6,2.6,1.2,4.3,1.9 c0,1.3,0,2.3,0,3.3c0,1,0,2,0,3.3c-1.7,0.7-3,1.3-4.3,1.9c-1.3,0.6-2.6,1.2-4.3,2.1c-1.7-0.6-3-1.1-4.3-1.6 c-1.3-0.5-2.6-1-4.3-1.7c0-1.6,0-2.8,0-4C109,79.8,109,78.6,109,77z" />
	<path fill="#89298C" d="M89.2,76.2c1.7-0.9,3-1.5,4.3-2.1c1.3-0.6,2.6-1.2,4.3-2c1.7,1,3,1.7,4.3,2.5c1.3,0.7,2.6,1.4,4.3,2.3 c0,1.6,0,2.9,0,4.1c0,1.2,0,2.4,0,4.1c-1.7,0.9-3,1.6-4.3,2.3c-1.3,0.7-2.6,1.4-4.3,2.4c-1.7-0.7-3-1.3-4.3-2 c-1.3-0.6-2.6-1.2-4.3-2.1c0-1.9,0-3.3,0-4.7C89.2,79.5,89.2,78.1,89.2,76.2z" />
	<path fill="#89298C" d="M49.7,76.9c1.7-0.9,3-1.6,4.3-2.3c1.3-0.7,2.6-1.4,4.3-2.5c1.7,0.8,3,1.3,4.3,2c1.3,0.6,2.6,1.2,4.3,2.1 c0,1.9,0,3.3,0,4.7c0,1.4,0,2.8,0,4.7c-1.7,0.9-3,1.5-4.3,2.1c-1.3,0.6-2.6,1.2-4.3,2c-1.7-1-3-1.7-4.3-2.4 c-1.3-0.7-2.6-1.4-4.3-2.3c0-1.6,0-2.9,0-4.1C49.7,79.7,49.7,78.5,49.7,76.9z" />
	<path fill="#AD2686" d="M29.9,77.6c1.7-0.7,3-1.3,4.3-1.9c1.3-0.6,2.6-1.2,4.3-2.1c1.7,0.6,3,1.1,4.3,1.6c1.3,0.5,2.6,1,4.3,1.7 c0,1.6,0,2.8,0,4c0,1.2,0,2.4,0,4c-1.7,0.7-3,1.3-4.3,1.7c-1.3,0.5-2.6,1-4.3,1.6c-1.7-0.9-3-1.5-4.3-2.1 c-1.3-0.6-2.6-1.2-4.3-1.9c0-1.3,0-2.3,0-3.3C29.9,80,29.9,79,29.9,77.6z" />
	<path fill="#AD2686" d="M10.1,78.4c1.7-0.6,3-1.1,4.3-1.5c1.3-0.5,2.6-1,4.3-1.7c1.7,0.5,3,0.8,4.3,1.2c1.3,0.4,2.6,0.8,4.3,1.4 c0,1.3,0,2.3,0,3.2s0,1.9,0,3.2c-1.7,0.6-3,1-4.3,1.4c-1.3,0.4-2.6,0.8-4.3,1.2c-1.7-0.7-3-1.2-4.3-1.7c-1.3-0.5-2.6-1-4.3-1.5 C10.1,81.5,10.1,80.5,10.1,78.4z" />
	<path fill="#6E318C" d="M128.8,92c1.7-0.9,3-1.5,4.3-2.1c1.3-0.6,2.6-1.2,4.3-1.9c1.7,0.4,3,0.7,4.3,1c1.3,0.3,2.6,0.5,4.3,0.8 c0,2.1,0,3.1,0,5.2c-1.7,0.9-3,1.5-4.3,2.3c-1.3,0.7-2.6,1.4-4.3,2.4c-1.7-0.2-3-0.3-4.3-0.5c-1.3-0.2-2.6-0.4-4.3-0.7 c0-1.3,0-2.3,0-3.2C128.8,94.2,128.8,93.3,128.8,92z" />
	<path fill="#6E318C" d="M109,94.5c1.7-1,3-1.7,4.3-2.5c1.3-0.7,2.6-1.4,4.3-2.3c1.7,0.6,3,1,4.3,1.3c1.3,0.4,2.6,0.8,4.3,1.2 c0,1.3,0,2.3,0,3.3c0,1,0,2,0,3.3c-1.7,1-3,1.8-4.3,2.6c-1.3,0.8-2.6,1.6-4.3,2.8c-1.7-0.3-3-0.6-4.3-0.9c-1.3-0.3-2.6-0.6-4.3-1 c0-1.6,0-2.8,0-4C109,97.3,109,96.1,109,94.5z" />
	<path fill="#89298C" d="M89.2,97.1c1.7-1.2,3-2,4.3-2.8c1.3-0.8,2.6-1.6,4.3-2.7c1.7,0.7,3,1.2,4.3,1.7c1.3,0.5,2.6,1,4.3,1.6 c0,1.6,0,2.9,0,4.1c0,1.2,0,2.4,0,4.1c-1.7,1.2-3,2.1-4.3,3c-1.3,0.9-2.6,1.9-4.3,3.2c-1.7-0.5-3-0.8-4.3-1.2 c-1.3-0.4-2.6-0.8-4.3-1.4c0-1.9,0-3.3,0-4.7C89.2,100.4,89.2,99,89.2,97.1z" />
	<path fill="#89298C" d="M49.7,94.9c1.7-0.6,3-1.1,4.3-1.6c1.3-0.5,2.6-1,4.3-1.7c1.7,1,3,1.9,4.3,2.7c1.3,0.8,2.6,1.7,4.3,2.8 c0,1.9,0,3.3,0,4.7c0,1.4,0,2.8,0,4.7c-1.7,0.6-3,1-4.3,1.4c-1.3,0.4-2.6,0.8-4.3,1.2c-1.7-1.3-3-2.2-4.3-3.2 c-1.3-0.9-2.6-1.8-4.3-3c0-1.6,0-2.9,0-4.1C49.7,97.7,49.7,96.5,49.7,94.9z" />
	<path fill="#AD2686" d="M29.9,92.3c1.7-0.4,3-0.8,4.3-1.2c1.3-0.4,2.6-0.8,4.3-1.3c1.7,0.9,3,1.6,4.3,2.3c1.3,0.7,2.6,1.5,4.3,2.5 c0,1.6,0,2.8,0,4c0,1.2,0,2.4,0,4c-1.7,0.4-3,0.7-4.3,1c-1.3,0.3-2.6,0.5-4.3,0.9c-1.7-1.1-3-2-4.3-2.8c-1.3-0.8-2.6-1.6-4.3-2.6 c0-1.3,0-2.3,0-3.3S29.9,93.6,29.9,92.3z" />
	<path fill="#AD2686" d="M10.1,89.7c1.7-0.3,3-0.5,4.3-0.8c1.3-0.3,2.6-0.6,4.3-1c1.7,0.7,3,1.3,4.3,1.9c1.3,0.6,2.6,1.2,4.3,2.1 c0,1.3,0,2.3,0,3.2c0,1,0,1.9,0,3.2c-1.7,0.3-3,0.5-4.3,0.7c-1.3,0.2-2.6,0.3-4.3,0.5c-1.7-1-3-1.7-4.3-2.4 c-1.3-0.7-2.6-1.4-4.3-2.3C10.1,92.8,10.1,91.8,10.1,89.7z" />
	<path fill="#6E318C" d="M128.8,106.2c1.7-1.2,3-2,4.3-2.8c1.3-0.8,2.6-1.6,4.3-2.7c1.7,0.1,3,0.2,4.3,0.3c1.3,0.1,2.6,0.1,4.3,0.1 c0,2.1,0,3.1,0,5.2c-1.7,1.2-3,2.1-4.3,3c-1.3,0.9-2.6,1.9-4.3,3.1c-1.7,0.1-3,0.2-4.3,0.2c-1.3,0-2.6,0.1-4.3,0.1 c0-1.3,0-2.3,0-3.2C128.8,108.5,128.8,107.5,128.8,106.2z" />
	<path fill="#6E318C" d="M109,112.1c1.7-1.3,3-2.3,4.3-3.2c1.3-0.9,2.6-1.8,4.3-3c1.7,0.3,3,0.5,4.3,0.6c1.3,0.2,2.6,0.3,4.3,0.5 c0,1.3,0,2.3,0,3.3c0,1,0,2,0,3.3c-1.7,1.3-3,2.3-4.3,3.4c-1.3,1-2.6,2.1-4.3,3.5c-1.7,0-3-0.1-4.3-0.1c-1.3-0.1-2.6-0.1-4.3-0.3 c0-1.6,0-2.8,0-4C109,114.9,109,113.7,109,112.1z" />
	<path fill="#89298C" d="M89.2,117.9c1.7-1.5,3-2.5,4.3-3.6c1.3-1,2.6-2.1,4.3-3.4c1.7,0.4,3,0.7,4.3,1c1.3,0.3,2.6,0.5,4.3,0.8 c0,1.6,0,2.9,0,4.1s0,2.5,0,4.1c-1.7,1.5-3,2.6-4.3,3.7c-1.3,1.1-2.6,2.3-4.3,3.9c-1.7-0.2-3-0.3-4.3-0.5 c-1.3-0.2-2.6-0.4-4.3-0.7c0-1.9,0-3.3,0-4.7C89.2,121.2,89.2,119.8,89.2,117.9z" />
	<path fill="#89298C" d="M49.7,112.8c1.7-0.3,3-0.6,4.3-0.9c1.3-0.3,2.6-0.6,4.3-1c1.7,1.3,3,2.4,4.3,3.4c1.3,1,2.6,2.1,4.3,3.6 c0,1.9,0,3.3,0,4.7c0,1.4,0,2.8,0,4.7c-1.7,0.3-3,0.5-4.3,0.7c-1.3,0.2-2.6,0.4-4.3,0.5c-1.7-1.6-3-2.8-4.3-3.9 c-1.3-1.1-2.6-2.3-4.3-3.7c0-1.6,0-2.9,0-4.1S49.7,114.5,49.7,112.8z" />
	<path fill="#AD2686" d="M29.9,107c1.7-0.2,3-0.3,4.3-0.5c1.3-0.2,2.6-0.3,4.3-0.6c1.7,1.2,3,2.1,4.3,3c1.3,0.9,2.6,1.9,4.3,3.2 c0,1.6,0,2.8,0,4c0,1.2,0,2.4,0,4c-1.7,0.2-3,0.2-4.3,0.3c-1.3,0.1-2.6,0.1-4.3,0.1c-1.7-1.4-3-2.5-4.3-3.5c-1.3-1-2.6-2-4.3-3.4 c0-1.3,0-2.3,0-3.3C29.9,109.3,29.9,108.3,29.9,107z" />
	<path fill="#AD2686" d="M10.1,101.1c1.7,0,3,0,4.3-0.1c1.3-0.1,2.6-0.1,4.3-0.3c1.7,1,3,1.8,4.3,2.7c1.3,0.8,2.6,1.7,4.3,2.8 c0,1.3,0,2.3,0,3.2c0,1,0,1.9,0,3.2c-1.7,0-3,0-4.3-0.1c-1.3,0-2.6-0.1-4.3-0.2c-1.7-1.3-3-2.2-4.3-3.1c-1.3-0.9-2.6-1.8-4.3-3 C10.1,104.2,10.1,103.2,10.1,101.1z" />
	<path fill="#6E318C" d="M128.8,120.4c1.7-1.4,3-2.5,4.3-3.5c1.3-1,2.6-2.1,4.3-3.4c1.7-0.1,3-0.3,4.3-0.4c1.3-0.2,2.6-0.3,4.3-0.6 c0,2.1,0,3.1,0,5.2c-1.7,1.4-3,2.6-4.3,3.7c-1.3,1.1-2.6,2.3-4.3,3.9c-1.7,0.4-3,0.7-4.3,1c-1.3,0.3-2.6,0.5-4.3,0.8 c0-1.3,0-2.3,0-3.2C128.8,122.7,128.8,121.7,128.8,120.4z" />
	<path fill="#6E318C" d="M109,129.6c1.7-1.6,3-2.8,4.3-3.9c1.3-1.1,2.6-2.3,4.3-3.7c1.7,0,3,0,4.3-0.1c1.3,0,2.6-0.1,4.3-0.2 c0,1.3,0,2.3,0,3.3c0,1,0,2,0,3.3c-1.7,1.6-3,2.8-4.3,4.1c-1.3,1.2-2.6,2.5-4.3,4.2c-1.7,0.3-3,0.4-4.3,0.6 c-1.3,0.2-2.6,0.3-4.3,0.4c0-1.6,0-2.8,0-4C109,132.4,109,131.2,109,129.6z" />
	<path fill="#89298C" d="M89.2,138.8c1.7-1.7,3-3,4.3-4.3c1.3-1.3,2.6-2.5,4.3-4.1c1.7,0.1,3,0.2,4.3,0.3c1.3,0.1,2.6,0.1,4.3,0.1 c0,1.6,0,2.9,0,4.1c0,1.2,0,2.5,0,4.1c-1.7,1.7-3,3.1-4.3,4.4c-1.3,1.4-2.6,2.7-4.3,4.6c-1.7,0.1-3,0.2-4.3,0.2 c-1.3,0-2.6,0.1-4.3,0c0-1.9,0-3.3,0-4.7C89.2,142.1,89.2,140.7,89.2,138.8z" />
	<g>
		<polygon fill="#89298C" points="69.4,12.3 78,2.5 86.6,12.3 86.6,22 78,23.1 69.4,22" />
		<polygon fill="#89298C" points="69.4,33.6 78,25.2 86.6,33.6 86.6,43.2 78,45.9 69.4,43.2" />
		<polygon fill="#89298C" points="69.4,54.9 78,47.9 86.6,54.9 86.6,64.5 78,68.6 69.4,64.5" />
		<polygon fill="#89298C" points="69.4,76.1 78,70.6 86.6,76.1 86.6,85.8 78,91.3 69.4,85.8" />
		<polygon fill="#89298C" points="69.4,97.4 78,93.4 86.6,97.4 86.6,107.1 78,114 69.4,107.1" />
		<polygon fill="#89298C" points="69.4,118.7 78,116.1 86.6,118.7 86.6,128.4 78,136.7 69.4,128.4" />
		<path fill="#89298C" d="M69.4,140l8.6-1.2l8.6,1.2v9.7l-8.6,9.8c0,0-7.5-8.5-8.6-9.8C69.4,147.7,69.4,140,69.4,140z" />
	</g>
	<path fill="#89298C" d="M49.7,130.8c1.7,0,3-0.1,4.3-0.1c1.3-0.1,2.6-0.1,4.3-0.3c1.7,1.6,3,2.9,4.3,4.1c1.3,1.3,2.6,2.5,4.3,4.3 c0,1.9,0,3.3,0,4.7c0,1.4,0,2.8,0,4.7c-1.7,0-3,0-4.3,0s-2.6-0.1-4.3-0.2c-1.7-1.9-3-3.3-4.3-4.6c-1.3-1.4-2.6-2.7-4.3-4.4 c0-1.6,0-2.9,0-4.1C49.7,133.7,49.7,132.4,49.7,130.8z" />
	<path fill="#AD2686" d="M29.9,121.6c1.7,0.1,3,0.2,4.3,0.2c1.3,0,2.6,0.1,4.3,0.1c1.7,1.5,3,2.6,4.3,3.7c1.3,1.1,2.6,2.3,4.3,3.9 c0,1.6,0,2.8,0,4c0,1.2,0,2.4,0,4c-1.7-0.1-3-0.3-4.3-0.4c-1.3-0.1-2.6-0.3-4.3-0.6c-1.7-1.7-3-3-4.3-4.2 c-1.3-1.2-2.6-2.5-4.3-4.1c0-1.3,0-2.3,0-3.3C29.9,124,29.9,123,29.9,121.6z" />
	<path fill="#AD2686" d="M10.1,112.5c1.7,0.3,3,0.5,4.3,0.6c1.3,0.2,2.6,0.3,4.3,0.4c1.7,1.3,3,2.3,4.3,3.4c1.3,1,2.6,2.1,4.3,3.5 c0,1.3,0,2.3,0,3.2c0,1,0,1.9,0,3.2c-1.7-0.3-3-0.5-4.3-0.8c-1.3-0.3-2.6-0.5-4.3-1c-1.7-1.6-3-2.7-4.3-3.9 c-1.3-1.1-2.6-2.3-4.3-3.7C10.1,115.6,10.1,114.5,10.1,112.5z" />
</svg>